<svg width="244" height="44" viewBox="0 0 244 44" fill="none" xmlns="http://www.w3.org/2000/svg">
<path d="M123.496 42.3025L123.509 42.8024L123.496 42.3025ZM243.968 2.03111e-05L238.236 0.693307L241.703 5.31048L243.968 2.03111e-05ZM240.119 2.22575C239.324 2.80096 238.525 3.37026 237.723 3.93365L238.298 4.75197C239.104 4.18589 239.906 3.61386 240.705 3.0359L240.119 2.22575ZM235.304 5.60766C234.493 6.16016 233.679 6.70669 232.862 7.24723L233.413 8.0814C234.235 7.53827 235.053 6.98912 235.867 6.43398L235.304 5.60766ZM230.397 8.85215C229.571 9.3817 228.741 9.90521 227.909 10.4227L228.436 11.272C229.273 10.7521 230.106 10.2261 230.936 9.694L230.397 8.85215ZM225.399 11.9578C224.559 12.4637 223.715 12.9636 222.868 13.4573L223.372 14.3212C224.223 13.8251 225.07 13.3229 225.915 12.8145L225.399 11.9578ZM220.317 14.9211C219.462 15.4033 218.605 15.8792 217.744 16.349L218.223 17.2267C219.088 16.7547 219.95 16.2765 220.808 15.792L220.317 14.9211ZM215.152 17.7404C214.285 18.1982 213.415 18.6498 212.541 19.0951L212.996 19.9859C213.873 19.5385 214.748 19.0848 215.619 18.6248L215.152 17.7404ZM209.911 20.413C209.031 20.8463 208.148 21.2732 207.263 21.6938L207.692 22.5971C208.581 22.1745 209.469 21.7455 210.353 21.3102L209.911 20.413ZM204.596 22.9371C203.705 23.3453 202.81 23.7471 201.913 24.1426L202.317 25.0577C203.218 24.6603 204.117 24.2565 205.013 23.8463L204.596 22.9371ZM199.213 25.3104C198.31 25.6934 197.405 26.0699 196.497 26.44L196.874 27.3661C197.786 26.9942 198.696 26.6158 199.603 26.2311L199.213 25.3104ZM193.765 27.5312C192.852 27.8886 191.936 28.2395 191.018 28.5839L191.369 29.5202C192.291 29.1741 193.212 28.8215 194.129 28.4625L193.765 27.5312ZM188.256 29.5977C187.333 29.9292 186.408 30.2542 185.481 30.5726L185.805 31.5184C186.737 31.1984 187.667 30.8719 188.594 30.5389L188.256 29.5977ZM182.692 31.5082C181.76 31.8136 180.826 32.1123 179.89 32.4045L180.188 33.3591C181.128 33.0655 182.067 32.7653 183.003 32.4585L182.692 31.5082ZM177.075 33.2612C176.135 33.5402 175.193 33.8125 174.249 34.0782L174.52 35.0408C175.469 34.7738 176.415 34.5002 177.36 34.2199L177.075 33.2612ZM171.412 34.8553C170.464 35.1076 169.515 35.3533 168.564 35.5923L168.808 36.5621C169.763 36.322 170.717 36.0751 171.669 35.8216L171.412 34.8553ZM165.706 36.2891C164.752 36.5146 163.796 36.7334 162.838 36.9455L163.055 37.9219C164.017 37.7087 164.977 37.4889 165.936 37.2623L165.706 36.2891ZM159.962 37.5615C159.002 37.76 158.04 37.9518 157.077 38.1368L157.265 39.1189C158.233 38.9329 159.199 38.7402 160.164 38.5408L159.962 37.5615ZM154.184 38.6714C153.219 38.8428 152.252 39.0074 151.284 39.1652L151.445 40.1522C152.417 39.9936 153.389 39.8282 154.359 39.656L154.184 38.6714ZM148.377 39.618C147.407 39.762 146.437 39.8993 145.464 40.0297L145.597 41.0208C146.574 40.8898 147.55 40.7519 148.524 40.6071L148.377 39.618ZM142.546 40.4004C141.573 40.517 140.598 40.6269 139.622 40.7299L139.727 41.7243C140.708 41.6209 141.687 41.5105 142.665 41.3933L142.546 40.4004ZM136.695 41.018C135.719 41.1071 134.742 41.1894 133.764 41.2648L133.841 42.2619C134.823 42.1861 135.805 42.1034 136.786 42.0138L136.695 41.018ZM130.829 41.4703C129.851 41.5319 128.871 41.5866 127.891 41.6344L127.94 42.6332C128.925 42.5851 129.909 42.5302 130.892 42.4683L130.829 41.4703ZM124.953 41.757C124.463 41.7739 123.972 41.7892 123.482 41.8027L123.509 42.8024C124.002 42.7888 124.495 42.7734 124.987 42.7564L124.953 41.757ZM123.482 41.8027C122.992 41.8163 122.502 41.828 122.012 41.8381L122.032 42.8379C122.525 42.8278 123.017 42.8159 123.509 42.8024L123.482 41.8027ZM119.073 41.8777C118.093 41.8841 117.113 41.8835 116.134 41.876L116.126 42.8759C117.11 42.8835 118.095 42.8841 119.08 42.8777L119.073 41.8777ZM113.195 41.8328C112.215 41.8114 111.236 41.7832 110.257 41.7481L110.221 42.7475C111.205 42.7827 112.189 42.8111 113.173 42.8325L113.195 41.8328ZM107.321 41.6221C106.342 41.5731 105.364 41.5173 104.386 41.4546L104.322 42.4525C105.304 42.5155 106.287 42.5716 107.271 42.6208L107.321 41.6221ZM101.454 41.2457C100.477 41.1692 99.5012 41.0858 98.5261 40.9955L98.4339 41.9913C99.4138 42.082 100.395 42.1658 101.376 42.2427L101.454 41.2457ZM95.6014 40.7041C94.6268 40.6 93.6533 40.4891 92.6809 40.3713L92.5607 41.3641C93.5378 41.4824 94.516 41.5938 95.4952 41.6984L95.6014 40.7041ZM89.7656 39.9975C88.7946 39.8659 87.8247 39.7276 86.8561 39.5825L86.7079 40.5715C87.6812 40.7173 88.6557 40.8563 89.6314 40.9884L89.7656 39.9975ZM83.9524 39.1265C82.9854 38.9676 82.0197 38.802 81.0554 38.6296L80.8794 39.614C81.8483 39.7872 82.8186 39.9536 83.7903 40.1133L83.9524 39.1265ZM78.1659 38.0918C77.2039 37.9058 76.2433 37.713 75.2843 37.5134L75.0806 38.4924C76.0442 38.6929 77.0094 38.8867 77.976 39.0736L78.1659 38.0918ZM72.4109 36.8943C71.4545 36.6812 70.4998 36.4613 69.5467 36.2348L69.3154 37.2076C70.2731 37.4353 71.2324 37.6562 72.1934 37.8704L72.4109 36.8943ZM66.6921 35.5349C65.7422 35.2948 64.794 35.0481 63.8476 34.7948L63.589 35.7607C64.5399 36.0153 65.4926 36.2632 66.4471 36.5044L66.6921 35.5349ZM61.0139 34.0146C60.0711 33.7478 59.1303 33.4745 58.1914 33.1945L57.9056 34.1528C58.849 34.4341 59.7943 34.7088 60.7416 34.9768L61.0139 34.0146ZM55.3808 32.3346C54.446 32.0414 53.5133 31.7416 52.5826 31.4352L52.2699 32.385C53.205 32.6929 54.1422 32.9942 55.0815 33.2888L55.3808 32.3346ZM49.7974 30.4964C48.8713 30.1769 47.9474 29.8509 47.0258 29.5183L46.6863 30.459C47.6124 30.7931 48.5408 31.1207 49.4714 31.4417L49.7974 30.4964ZM44.268 28.5012C43.3514 28.1557 42.4371 27.8038 41.5252 27.4453L41.1594 28.376C42.0756 28.7362 42.9943 29.0898 43.9154 29.4369L44.268 28.5012ZM38.7975 26.3508C37.8909 25.9796 36.9869 25.602 36.0853 25.2179L35.6934 26.1378C36.5992 26.5238 37.5077 26.9033 38.4185 27.2762L38.7975 26.3508ZM33.3894 24.0467C32.4939 23.6501 31.6009 23.2471 30.7106 22.8377L30.2929 23.7463C31.1874 24.1576 32.0847 24.5625 32.9845 24.961L33.3894 24.0467ZM28.049 21.5909C27.165 21.1692 26.2836 20.7411 25.4051 20.3066L24.9618 21.203C25.8446 21.6395 26.7301 22.0697 27.6185 22.4935L28.049 21.5909ZM22.7797 18.9852C21.9081 18.5387 21.0393 18.0859 20.1735 17.6269L19.7051 18.5104C20.5751 18.9717 21.448 19.4266 22.3238 19.8752L22.7797 18.9852ZM17.5865 16.2318C16.7276 15.7608 15.8718 15.2836 15.019 14.8001L14.5259 15.67C15.3827 16.1558 16.2427 16.6353 17.1056 17.1086L17.5865 16.2318ZM12.4728 13.3327C11.6279 12.8378 10.786 12.3367 9.94739 11.8294L9.42982 12.685C10.2725 13.1948 11.1184 13.6983 11.9674 14.1956L12.4728 13.3327ZM7.44308 10.2904C6.61236 9.77172 5.78489 9.24697 4.96075 8.71611L4.41925 9.5568C5.24734 10.0902 6.07878 10.6175 6.9135 11.1386L7.44308 10.2904ZM2.50149 7.10736C2.09335 6.83624 1.68606 6.56361 1.27963 6.28946L0.720427 7.1185C1.12883 7.39396 1.53807 7.6679 1.94816 7.94033L2.50149 7.10736ZM123.496 42.3025L123.523 43.3022L123.496 42.3025ZM243.968 2.03111e-05L232.505 1.3866L239.437 10.6209L243.968 2.03111e-05ZM239.826 1.82068C239.033 2.39451 238.236 2.96245 237.436 3.52449L238.585 5.16112C239.393 4.5937 240.197 4.02031 240.998 3.44098L239.826 1.82068ZM235.022 5.1945C234.214 5.74567 233.401 6.2909 232.586 6.83015L233.689 8.49848C234.512 7.95406 235.332 7.40361 236.149 6.84715L235.022 5.1945ZM230.127 8.43123C229.303 8.95951 228.475 9.48177 227.645 9.99798L228.7 11.6967C229.539 11.1755 230.374 10.6483 231.206 10.1149L230.127 8.43123ZM225.141 11.5294C224.303 12.0342 223.461 12.5328 222.616 13.0254L223.624 14.7531C224.477 14.2559 225.326 13.7524 226.173 13.2428L225.141 11.5294ZM220.071 14.4857C219.219 14.9667 218.363 15.4415 217.505 15.9101L218.463 17.6656C219.33 17.1924 220.193 16.713 221.054 16.2275L220.071 14.4857ZM214.919 17.2982C214.054 17.7549 213.185 18.2054 212.314 18.6496L213.223 20.4314C214.102 19.9829 214.979 19.5281 215.853 19.067L214.919 17.2982ZM209.69 19.9644C208.812 20.3966 207.932 20.8225 207.048 21.2421L207.906 23.0487C208.798 22.6251 209.687 22.1951 210.574 21.7588L209.69 19.9644ZM204.388 22.4824C203.499 22.8897 202.606 23.2906 201.712 23.6851L202.518 25.5152C203.422 25.1168 204.323 24.7121 205.221 24.3009L204.388 22.4824ZM199.018 24.8501C198.117 25.2322 197.214 25.6078 196.308 25.977L197.063 27.8291C197.977 27.4563 198.889 27.0771 199.799 26.6914L199.018 24.8501ZM193.583 27.0656C192.672 27.4221 191.758 27.7722 190.842 28.1157L191.545 29.9883C192.469 29.6414 193.392 29.288 194.311 28.9281L193.583 27.0656ZM188.087 29.1272C187.166 29.4578 186.243 29.782 185.318 30.0997L185.968 31.9913C186.902 31.6706 187.834 31.3433 188.763 31.0094L188.087 29.1272ZM182.536 31.0331C181.606 31.3377 180.674 31.6357 179.741 31.9272L180.337 33.8364C181.279 33.5421 182.22 33.2412 183.159 32.9337L182.536 31.0331ZM176.933 32.7819C175.995 33.0602 175.056 33.3318 174.114 33.5969L174.656 35.5221C175.606 35.2545 176.555 34.9802 177.502 34.6992L176.933 32.7819ZM171.283 34.3721C170.338 34.6239 169.391 34.8689 168.442 35.1074L168.93 37.0471C169.887 36.8063 170.844 36.5589 171.798 36.3048L171.283 34.3721ZM165.591 35.8025C164.639 36.0275 163.685 36.2458 162.73 36.4574L163.163 38.41C164.127 38.1964 165.09 37.976 166.051 37.7489L165.591 35.8025ZM159.86 37.0719C158.903 37.2699 157.943 37.4612 156.982 37.6458L157.36 39.6099C158.33 39.4235 159.298 39.2304 160.265 39.0304L159.86 37.0719ZM154.097 38.1791C153.134 38.3501 152.169 38.5143 151.203 38.6717L151.525 40.6457C152.5 40.4867 153.474 40.3209 154.446 40.1483L154.097 38.1791ZM148.304 39.1234C147.336 39.2671 146.368 39.404 145.398 39.5342L145.664 41.5164C146.643 41.385 147.621 41.2468 148.597 41.1017L148.304 39.1234ZM142.486 39.9039C141.515 40.0203 140.543 40.1299 139.57 40.2326L139.78 42.2216C140.762 42.1178 141.744 42.0072 142.724 41.8897L142.486 39.9039ZM136.65 40.5201C135.676 40.609 134.701 40.6911 133.725 40.7663L133.879 42.7604C134.864 42.6844 135.848 42.6015 136.831 42.5118L136.65 40.5201ZM130.798 40.9713C129.822 41.0327 128.845 41.0873 127.867 41.135L127.965 43.1326C128.952 43.0844 129.938 43.0293 130.923 42.9673L130.798 40.9713ZM124.935 41.2573C124.446 41.2742 123.957 41.2894 123.468 41.3029L123.523 43.3022C124.017 43.2885 124.511 43.2732 125.005 43.2561L124.935 41.2573ZM123.468 41.3029C122.979 41.3164 122.49 41.3282 122.002 41.3382L122.043 43.3378C122.536 43.3277 123.03 43.3158 123.523 43.3022L123.468 41.3029ZM119.07 41.3778C118.092 41.3841 117.115 41.3835 116.138 41.376L116.123 43.3759C117.109 43.3835 118.096 43.3841 119.083 43.3777L119.07 41.3778ZM113.206 41.3329C112.228 41.3116 111.251 41.2835 110.275 41.2484L110.203 43.2471C111.189 43.2825 112.175 43.3109 113.162 43.3324L113.206 41.3329ZM107.346 41.1227C106.369 41.0739 105.393 41.0181 104.418 40.9556L104.29 42.9515C105.275 43.0146 106.26 43.0709 107.246 43.1202L107.346 41.1227ZM101.493 40.7472C100.519 40.6709 99.545 40.5877 98.5721 40.4977L98.3879 42.4892C99.37 42.58 100.353 42.664 101.337 42.7411L101.493 40.7472ZM95.6545 40.2069C94.6823 40.1031 93.7111 39.9924 92.741 39.875L92.5006 41.8605C93.48 41.979 94.4605 42.0908 95.4421 42.1956L95.6545 40.2069ZM89.8327 39.502C88.864 39.3708 87.8965 39.2328 86.9302 39.088L86.6339 41.0659C87.6094 41.2121 88.5863 41.3514 89.5643 41.4839L89.8327 39.502ZM84.0334 38.6331C83.0687 38.4746 82.1054 38.3094 81.1434 38.1374L80.7914 40.1061C81.7626 40.2798 82.7352 40.4466 83.7092 40.6067L84.0334 38.6331ZM78.2608 37.6009C77.3011 37.4153 76.3429 37.223 75.3862 37.0239L74.9787 38.9819C75.9447 39.1829 76.9121 39.3771 77.8811 39.5645L78.2608 37.6009ZM72.5197 36.4063C71.5656 36.1937 70.6131 35.9743 69.6623 35.7483L69.1998 37.6941C70.1597 37.9223 71.1214 38.1437 72.0847 38.3584L72.5197 36.4063ZM66.8146 35.0501C65.8669 34.8107 64.921 34.5645 63.977 34.3118L63.4597 36.2437C64.4128 36.4989 65.3679 36.7474 66.3247 36.9892L66.8146 35.0501ZM61.15 33.5335C60.2095 33.2674 59.2709 32.9947 58.3343 32.7153L57.7627 34.6319C58.7084 34.9139 59.656 35.1893 60.6055 35.4579L61.15 33.5335ZM55.5304 31.8575C54.5979 31.565 53.6674 31.2659 52.739 30.9603L52.1135 32.86C53.0509 33.1686 53.9903 33.4705 54.9319 33.7659L55.5304 31.8575ZM49.9605 30.0237C49.0366 29.705 48.1149 29.3798 47.1955 29.048L46.5166 30.9293C47.445 31.2642 48.3755 31.5926 49.3083 31.9144L49.9605 30.0237ZM44.4444 28.0333C43.5299 27.6887 42.6178 27.3376 41.7081 26.98L40.9764 28.8413C41.8949 29.2024 42.8158 29.5569 43.7391 29.9048L44.4444 28.0333ZM38.9869 25.8881C38.0826 25.5178 37.1807 25.141 36.2813 24.7579L35.4974 26.5978C36.4054 26.9847 37.316 27.3651 38.2291 27.739L38.9869 25.8881ZM33.5919 23.5895C32.6985 23.1939 31.8077 22.7918 30.9195 22.3834L30.084 24.2005C30.9807 24.6129 31.8801 25.0188 32.7821 25.4182L33.5919 23.5895ZM28.2643 21.1397C27.3824 20.7189 26.5031 20.2918 25.6267 19.8584L24.7402 21.6512C25.625 22.0888 26.5127 22.52 27.4032 22.9448L28.2643 21.1397ZM23.0077 18.5402C22.1381 18.0948 21.2715 17.6431 20.4077 17.1851L19.4709 18.9521C20.343 19.4145 21.218 19.8705 22.0959 20.3202L23.0077 18.5402ZM17.8269 15.7934C16.9701 15.3235 16.1163 14.8474 15.2656 14.3651L14.2793 16.105C15.1382 16.5919 16.0002 17.0726 16.8652 17.547L17.8269 15.7934ZM12.7255 12.9013C11.8826 12.4075 11.0428 11.9076 10.2062 11.4016L9.17105 13.1129C10.0157 13.6238 10.8636 14.1285 11.7147 14.627L12.7255 12.9013ZM7.70787 9.86623C6.87915 9.34884 6.05368 8.82534 5.23152 8.29577L4.14848 9.97715C4.97857 10.5118 5.81199 11.0404 6.64869 11.5627L7.70787 9.86623ZM2.77815 6.69088C2.371 6.42041 1.96469 6.14843 1.55922 5.87494L0.44084 7.53302C0.850203 7.80914 1.26044 8.08374 1.67151 8.35681L2.77815 6.69088Z" fill="#FFE3E0"/>
</svg>
