<svg width="244" height="45" viewBox="0 0 244 45" fill="none" xmlns="http://www.w3.org/2000/svg">
<path d="M243.968 36.6781L241.419 31.4979L238.207 36.2957L243.968 36.6781ZM121.472 1.07954L121.459 0.57973L121.472 1.07954ZM1.30159 43.7809C1.69297 43.4849 2.08527 43.1904 2.4785 42.8973L1.88094 42.0955C1.48583 42.3899 1.09165 42.6859 0.698408 42.9833L1.30159 43.7809ZM4.84923 41.1563C5.64415 40.5811 6.4427 40.0118 7.24481 39.4484L6.67004 38.6301C5.8641 39.1962 5.06173 39.7682 4.26301 40.3462L4.84923 41.1563ZM9.66417 37.7744C10.4748 37.2219 11.2889 36.6754 12.1065 36.1349L11.555 35.3007C10.7335 35.8438 9.91548 36.393 9.10098 36.9481L9.66417 37.7744ZM14.5715 34.5299C15.3975 34.0004 16.2268 33.4769 17.0595 32.9594L16.5317 32.1101C15.695 32.63 14.8617 33.156 14.0318 33.6881L14.5715 34.5299ZM19.5691 31.4243C20.4094 30.9184 21.253 30.4185 22.0998 29.9248L21.5961 29.0609C20.7452 29.557 19.8976 30.0592 19.0533 30.5676L19.5691 31.4243ZM24.6515 28.461C25.5058 27.9788 26.3633 27.5029 27.2238 27.0331L26.7446 26.1554C25.88 26.6274 25.0184 27.1056 24.16 27.5901L24.6515 28.461ZM29.8157 25.6417C30.6831 25.1839 31.5534 24.7323 32.4267 24.287L31.9725 23.3961C31.095 23.8436 30.2204 24.2973 29.3489 24.7573L29.8157 25.6417ZM35.057 22.969C35.937 22.5358 36.8198 22.1089 37.7054 21.6883L37.2764 20.785C36.3866 21.2076 35.4995 21.6366 34.6153 22.0719L35.057 22.969ZM40.3715 20.445C41.2633 20.0368 42.1577 19.6349 43.0548 19.2394L42.6514 18.3244C41.75 18.7218 40.8513 19.1256 39.9553 19.5358L40.3715 20.445ZM45.7551 18.0716C46.6579 17.6887 47.5634 17.3122 48.4714 16.9421L48.0939 16.016C47.1816 16.3879 46.2718 16.7663 45.3646 17.151L45.7551 18.0716ZM51.2032 15.8508C52.1165 15.4935 53.0322 15.1426 53.9503 14.7982L53.599 13.8619C52.6765 14.208 51.7565 14.5605 50.8388 14.9196L51.2032 15.8508ZM56.7119 13.7843C57.6348 13.4529 58.56 13.1279 59.4874 12.8095L59.1627 11.8637C58.2308 12.1836 57.3012 12.5102 56.3738 12.8432L56.7119 13.7843ZM62.2765 11.8738C63.2083 11.5685 64.1423 11.2697 65.0784 10.9776L64.7805 10.023C63.8399 10.3166 62.9014 10.6168 61.9651 10.9235L62.2765 11.8738ZM67.8927 10.1209C68.8327 9.84192 69.7747 9.56959 70.7188 9.30388L70.4478 8.34128C69.4993 8.60826 68.5527 8.8819 67.6082 9.16217L67.8927 10.1209ZM73.5562 8.52677C74.5036 8.27446 75.4529 8.02879 76.4041 7.78979L76.1604 6.81994C75.2047 7.06009 74.2508 7.30693 73.2989 7.56045L73.5562 8.52677ZM79.2621 7.09301C80.2163 6.86749 81.1722 6.64866 82.1298 6.43655L81.9135 5.46021C80.9513 5.67335 79.9908 5.89322 79.0321 6.11982L79.2621 7.09301ZM85.0065 5.82057C85.9665 5.62207 86.9281 5.4303 87.8913 5.24527L87.7026 4.26323C86.7348 4.44914 85.7686 4.64183 84.804 4.84128L85.0065 5.82057ZM90.7841 4.71068C91.7494 4.53931 92.7161 4.37471 93.6843 4.21689L93.5234 3.22991C92.5506 3.38849 91.5792 3.55388 90.6093 3.72607L90.7841 4.71068ZM96.591 3.76409C97.5606 3.62004 98.5315 3.48279 99.5036 3.35235L99.3707 2.36123C98.3938 2.4923 97.4183 2.63021 96.4441 2.77494L96.591 3.76409ZM102.422 2.9817C103.395 2.86505 104.37 2.75521 105.346 2.65222L105.241 1.65774C104.26 1.76123 103.281 1.87159 102.303 1.98881L102.422 2.9817ZM108.273 2.36409C109.249 2.27496 110.226 2.19268 111.204 2.11726L111.127 1.12022C110.145 1.196 109.163 1.27868 108.182 1.36823L108.273 2.36409ZM114.139 1.91178C115.117 1.85022 116.097 1.79552 117.077 1.74771L117.028 0.748902C116.043 0.796936 115.059 0.851894 114.076 0.913752L114.139 1.91178ZM120.015 1.62513C120.505 1.60814 120.996 1.59288 121.486 1.57935L121.459 0.57973C120.966 0.593328 120.473 0.608661 119.981 0.625726L120.015 1.62513ZM121.486 1.57935C121.976 1.56583 122.466 1.55404 122.956 1.54398L122.936 0.544186C122.443 0.554296 121.951 0.566143 121.459 0.57973L121.486 1.57935ZM125.895 1.50433C126.875 1.49801 127.855 1.49861 128.834 1.50611L128.842 0.506135C127.858 0.498604 126.873 0.498003 125.888 0.504351L125.895 1.50433ZM131.773 1.54932C132.753 1.57064 133.732 1.59886 134.711 1.63397L134.747 0.63461C133.763 0.599338 132.779 0.570982 131.795 0.549559L131.773 1.54932ZM137.647 1.76002C138.626 1.80897 139.604 1.86481 140.582 1.92752L140.646 0.92957C139.664 0.866561 138.681 0.810454 137.697 0.761267L137.647 1.76002ZM143.514 2.13638C144.491 2.21291 145.467 2.2963 146.442 2.38654L146.534 1.3908C145.554 1.30012 144.573 1.21633 143.592 1.13943L143.514 2.13638ZM149.367 2.67802C150.341 2.78209 151.315 2.89301 152.287 3.01075L152.407 2.018C151.43 1.8997 150.452 1.78824 149.473 1.68367L149.367 2.67802ZM155.202 3.38463C156.173 3.51613 157.143 3.65446 158.112 3.79957L158.26 2.81061C157.287 2.6648 156.312 2.52581 155.337 2.39368L155.202 3.38463ZM161.016 4.25559C161.983 4.41445 162.948 4.5801 163.913 4.75252L164.089 3.76813C163.12 3.59488 162.149 3.42844 161.178 3.26881L161.016 4.25559ZM166.802 5.29025C167.764 5.47631 168.725 5.66912 169.684 5.86868L169.887 4.88965C168.924 4.68914 167.959 4.49539 166.992 4.30844L166.802 5.29025ZM172.557 6.48778C173.513 6.70091 174.468 6.92077 175.421 7.14733L175.653 6.17444C174.695 5.94679 173.736 5.72587 172.775 5.51172L172.557 6.48778ZM178.276 7.84721C179.226 8.08724 180.174 8.33395 181.12 8.58733L181.379 7.62135C180.428 7.36676 179.475 7.11886 178.521 6.87768L178.276 7.84721ZM183.954 9.36751C184.897 9.63424 185.838 9.90761 186.777 10.1876L187.062 9.22931C186.119 8.94797 185.174 8.67329 184.226 8.40528L183.954 9.36751ZM189.587 11.0475C190.522 11.3407 191.455 11.6405 192.385 11.9469L192.698 10.997C191.763 10.6892 190.826 10.3879 189.887 10.0933L189.587 11.0475ZM195.171 12.8857C196.097 13.2052 197.021 13.5312 197.942 13.8638L198.282 12.9231C197.356 12.589 196.427 12.2614 195.497 11.9404L195.171 12.8857ZM200.7 14.8809C201.617 15.2263 202.531 15.5783 203.443 15.9368L203.809 15.0061C202.892 14.6459 201.974 14.2922 201.053 13.9451L200.7 14.8809ZM206.171 17.0313C207.077 17.4025 207.981 17.7801 208.883 18.1642L209.275 17.2442C208.369 16.8583 207.46 16.4788 206.549 16.1058L206.171 17.0313ZM211.579 19.3354C212.474 19.732 213.367 20.135 214.257 20.5444L214.675 19.6358C213.781 19.2245 212.883 18.8195 211.984 18.421L211.579 19.3354ZM216.919 21.7911C217.803 22.2129 218.684 22.641 219.563 23.0755L220.006 22.1791C219.123 21.7425 218.238 21.3124 217.35 20.8886L216.919 21.7911ZM222.188 24.3969C223.06 24.8434 223.929 25.2961 224.795 25.7552L225.263 24.8717C224.393 24.4104 223.52 23.9555 222.644 23.5069L222.188 24.3969ZM227.382 27.1503C228.24 27.6213 229.096 28.0985 229.949 28.582L230.442 27.7121C229.585 27.2263 228.725 26.7467 227.862 26.2735L227.382 27.1503ZM232.495 30.0494C233.34 30.5443 234.182 31.0454 235.021 31.5527L235.538 30.697C234.696 30.1873 233.85 29.6838 233.001 29.1865L232.495 30.0494ZM237.525 33.0917C238.356 33.6104 239.183 34.1351 240.007 34.666L240.549 33.8253C239.721 33.2919 238.889 32.7646 238.055 32.2435L237.525 33.0917ZM243.968 36.6781L238.87 26.3177L232.446 35.9133L243.968 36.6781ZM121.472 1.07954L121.445 0.0799201L121.472 1.07954ZM1.60318 44.1797C1.99362 43.8844 2.38499 43.5906 2.77727 43.2982L1.58216 41.6946C1.18611 41.9897 0.790996 42.2864 0.396816 42.5845L1.60318 44.1797ZM5.14234 41.5614C5.93536 40.9876 6.732 40.4196 7.53219 39.8576L6.38266 38.221C5.5748 38.7884 4.77052 39.3618 3.9699 39.9411L5.14234 41.5614ZM9.94577 38.1876C10.7545 37.6364 11.5666 37.0912 12.3823 36.5519L11.2792 34.8836C10.4558 35.428 9.63583 35.9785 8.81938 36.5349L9.94577 38.1876ZM14.8414 34.9509C15.6654 34.4226 16.4927 33.9003 17.3234 33.3841L16.2678 31.6854C15.4291 32.2065 14.5938 32.7338 13.7619 33.2672L14.8414 34.9509ZM19.827 31.8526C20.6653 31.3479 21.5069 30.8493 22.3516 30.3567L21.3442 28.629C20.4914 29.1262 19.6417 29.6297 18.7954 30.1392L19.827 31.8526ZM24.8972 28.8964C25.7495 28.4154 26.6049 27.9406 27.4633 27.4719L26.505 25.7165C25.6383 26.1896 24.7747 26.669 23.9142 27.1546L24.8972 28.8964ZM30.049 26.0839C30.9144 25.6272 31.7827 25.1767 32.6539 24.7324L31.7453 22.9507C30.8658 23.3992 29.9891 23.854 29.1155 24.3151L30.049 26.0839ZM35.2778 23.4176C36.1557 22.9855 37.0364 22.5595 37.9199 22.1399L37.0619 20.3333C36.1699 20.757 35.2808 21.187 34.3944 21.6233L35.2778 23.4176ZM40.5796 20.8996C41.4692 20.4924 42.3615 20.0915 43.2565 19.6969L42.4497 17.8669C41.5462 18.2652 40.6453 18.67 39.7472 19.0811L40.5796 20.8996ZM45.9503 18.532C46.851 18.1499 47.7543 17.7743 48.6601 17.4051L47.9052 15.553C46.9907 15.9258 46.0787 16.305 45.1693 16.6907L45.9503 18.532ZM51.3854 16.3165C52.2965 15.96 53.21 15.6099 54.1259 15.2663L53.4234 13.3938C52.4987 13.7407 51.5765 14.0941 50.6566 14.454L51.3854 16.3165ZM56.8809 14.2549C57.8016 13.9242 58.7246 13.6001 59.6498 13.2824L59.0003 11.3908C58.0662 11.7115 57.1344 12.0388 56.2048 12.3726L56.8809 14.2549ZM62.4322 12.349C63.3618 12.0444 64.2935 11.7463 65.2274 11.4548L64.6315 9.54569C63.6887 9.83997 62.7479 10.1409 61.8094 10.4484L62.4322 12.349ZM68.0349 10.6002C68.9727 10.3219 69.9125 10.0502 70.8542 9.78518L70.3124 7.85998C69.3616 8.1276 68.4127 8.40189 67.466 8.68283L68.0349 10.6002ZM73.6849 9.00993C74.63 8.75822 75.5771 8.51314 76.5259 8.27472L76.0385 6.33502C75.0805 6.57574 74.1244 6.82317 73.1702 7.07729L73.6849 9.00993ZM79.3771 7.5796C80.329 7.35463 81.2826 7.13632 82.2379 6.92471L81.8054 4.97204C80.8409 5.18569 79.8781 5.40609 78.9171 5.63323L79.3771 7.5796ZM85.1077 6.31021C86.0654 6.11219 87.0248 5.92088 87.9856 5.73629L87.6083 3.77221C86.6382 3.95856 85.6697 4.15172 84.7028 4.35164L85.1077 6.31021ZM90.8715 5.20298C91.8344 5.03203 92.7989 4.86782 93.7648 4.71037L93.443 2.73643C92.4679 2.89538 91.4941 3.06117 90.5219 3.23377L90.8715 5.20298ZM96.6645 4.25866C97.6317 4.11496 98.6003 3.97804 99.5701 3.84791L99.3042 1.86567C98.325 1.99705 97.3471 2.13529 96.3706 2.28037L96.6645 4.25866ZM102.482 3.47815C103.453 3.36177 104.425 3.2522 105.398 3.14946L105.188 1.16051C104.206 1.26424 103.224 1.37486 102.244 1.49236L102.482 3.47815ZM108.318 2.86202C109.292 2.77311 110.267 2.69102 111.243 2.61578L111.089 0.621701C110.104 0.697661 109.12 0.780537 108.137 0.870306L108.318 2.86202ZM114.171 2.41079C115.146 2.34938 116.123 2.29481 117.101 2.24712L117.003 0.249496C116.016 0.297645 115.03 0.352734 114.045 0.414739L114.171 2.41079ZM120.033 2.12483C120.522 2.10788 121.011 2.09266 121.5 2.07916L121.445 0.0799201C120.951 0.0935504 120.457 0.10892 119.963 0.126026L120.033 2.12483ZM121.5 2.07916C121.989 2.06567 122.478 2.05391 122.966 2.04387L122.925 0.0442916C122.432 0.0544255 121.938 0.0663008 121.445 0.0799201L121.5 2.07916ZM125.898 2.00432C126.876 1.99802 127.853 1.99861 128.83 2.00609L128.845 0.00614935C127.859 -0.00139928 126.872 -0.00200176 125.885 0.00436187L125.898 2.00432ZM131.762 2.0492C132.74 2.07047 133.717 2.09863 134.693 2.13365L134.765 0.134931C133.779 0.0995756 132.793 0.0711511 131.806 0.0496777L131.762 2.0492ZM137.622 2.2594C138.599 2.30823 139.575 2.36394 140.55 2.42649L140.678 0.430595C139.693 0.367437 138.708 0.311195 137.722 0.261891L137.622 2.2594ZM143.475 2.63485C144.449 2.7112 145.423 2.79439 146.396 2.88442L146.58 0.892926C145.598 0.802035 144.615 0.718038 143.631 0.640956L143.475 2.63485ZM149.314 3.17519C150.286 3.27901 151.257 3.38967 152.227 3.50713L152.467 1.52163C151.488 1.40304 150.507 1.29132 149.526 1.1865L149.314 3.17519ZM155.135 3.88011C156.104 4.0113 157.072 4.14929 158.038 4.29406L158.334 2.31613C157.359 2.16997 156.382 2.03065 155.404 1.8982L155.135 3.88011ZM160.935 4.74897C161.899 4.90745 162.863 5.07271 163.825 5.24471L164.177 3.27594C163.205 3.10227 162.233 2.93543 161.259 2.77543L160.935 4.74897ZM166.707 5.78115C167.667 5.96676 168.625 6.15912 169.582 6.35819L169.989 4.40014C169.023 4.19914 168.056 4.00494 167.087 3.81754L166.707 5.78115ZM172.448 6.9758C173.402 7.18843 174.355 7.40775 175.306 7.63377L175.768 5.68799C174.808 5.4598 173.847 5.23836 172.883 5.02369L172.448 6.9758ZM178.153 8.33198C179.101 8.57143 180.047 8.81755 180.991 9.07031L181.508 7.13836C180.555 6.88316 179.6 6.63467 178.643 6.39292L178.153 8.33198ZM183.818 9.84863C184.759 10.1147 185.697 10.3874 186.634 10.6668L187.205 8.75017C186.26 8.46815 185.312 8.19281 184.363 7.92417L183.818 9.84863ZM189.438 11.5245C190.37 11.817 191.301 12.1161 192.229 12.4218L192.855 10.5221C191.917 10.2135 190.978 9.91153 190.036 9.61621L189.438 11.5245ZM195.008 13.3584C195.931 13.6771 196.853 14.0023 197.773 14.3341L198.451 12.4528C197.523 12.1178 196.593 11.7895 195.66 11.4677L195.008 13.3584ZM200.524 15.3488C201.438 15.6934 202.35 16.0445 203.26 16.4021L203.992 14.5407C203.073 14.1797 202.152 13.8252 201.229 13.4773L200.524 15.3488ZM205.981 17.494C206.885 17.8643 207.787 18.241 208.687 18.6242L209.471 16.7843C208.563 16.3974 207.652 16.017 206.739 15.6431L205.981 17.494ZM211.376 19.7926C212.27 20.1882 213.16 20.5902 214.049 20.9986L214.884 19.1816C213.987 18.7692 213.088 18.3633 212.186 17.9639L211.376 19.7926ZM216.704 22.2424C217.586 22.6632 218.465 23.0903 219.341 23.5237L220.228 21.7309C219.343 21.2933 218.455 20.8621 217.565 20.4373L216.704 22.2424ZM221.96 24.8419C222.83 25.2873 223.697 25.739 224.56 26.1969L225.497 24.4299C224.625 23.9676 223.75 23.5115 222.872 23.0619L221.96 24.8419ZM227.141 27.5887C227.998 28.0586 228.852 28.5346 229.702 29.0169L230.689 27.2771C229.83 26.7902 228.968 26.3095 228.103 25.8351L227.141 27.5887ZM232.243 30.4808C233.085 30.9745 233.925 31.4745 234.762 31.9805L235.797 30.2692C234.952 29.7583 234.104 29.2536 233.253 28.7551L232.243 30.4808ZM237.26 33.5159C238.089 34.0332 238.914 34.5567 239.737 35.0863L240.82 33.4049C239.989 32.8703 239.156 32.3417 238.319 31.8193L237.26 33.5159Z" fill="#FFE3E0"/>
</svg>
